# Blender v2.79 (sub 0) OBJ File: 'bud.blend'
# www.blender.org
mtllib bud_09.mtl
o bud_mesh
v -2.368265 -9.070058 -1.594851
v -3.214104 -9.055244 -0.083449
v -1.522426 -8.686747 -0.132788
v -0.221754 -13.510204 0.008577
v -2.516428 -8.103802 -1.567659
v -1.532813 -8.273317 -0.152805
v -3.259254 -8.297617 -0.015641
v -2.487239 0.123457 0.287257
v -2.883080 -14.540836 -0.975559
v -3.693023 -14.847418 0.524441
v -2.073135 -14.234257 0.524441
v -0.090245 -18.794477 0.024442
v -4.060361 -14.248759 0.651488
v -3.072889 -14.342093 -0.768437
v -2.461904 -13.581829 0.662890
v -4.616565 -9.211422 -0.448175
v 2.368265 -9.070060 -1.594851
v 3.214105 -9.055245 -0.083449
v 1.522426 -8.686747 -0.132788
v 0.221754 -13.510204 0.008577
v 2.516428 -8.103802 -1.567659
v 1.532813 -8.273317 -0.152804
v 3.259254 -8.297619 -0.015641
v 2.487239 0.123456 0.287258
v 4.025250 -15.830488 -0.975559
v 4.670033 -16.408638 0.524441
v 3.380468 -15.252339 0.524441
v -0.114143 -18.790016 0.024442
v 5.194960 -16.169378 0.651487
v 4.288199 -15.767385 -0.768438
v 4.127581 -14.805352 0.662890
v 8.145804 -12.049108 -0.448176
v 1.727039 -24.176062 -1.975558
v 1.807436 -20.176868 -1.975558
v -0.034798 -14.743595 -0.975558
v 1.727039 -24.176062 2.024441
v -0.900404 -14.716622 0.524442
v 1.807436 -20.176868 2.024441
v 0.830807 -14.770567 0.524442
v -0.175776 -19.267897 0.024442
v -2.191755 -20.096472 2.024441
v -2.272153 -24.095665 2.024441
v -2.191755 -20.096472 -1.975558
v -2.272153 -24.095665 -1.975558
v 2.254231 -22.186256 -2.462650
v -2.718947 -22.086277 -2.462650
v 2.254231 -22.186256 2.511533
v -2.718947 -22.086277 2.511533
v -0.272557 -24.135862 -1.975558
v -0.192160 -20.136669 -1.975558
v -0.192160 -20.136669 2.024441
v -0.272557 -24.135862 2.024441
v -0.232358 -22.136267 2.511533
v -0.232358 -22.136267 -2.462650
vt 0.000000 0.000000
vt 0.000000 0.000000
vt 0.000000 0.000000
vt 0.000000 0.000000
vt 0.000000 0.000000
vt 0.000000 0.000000
vt 0.000000 0.000000
vt 0.000000 0.000000
vt 0.000000 0.000000
vt 0.000000 0.000000
vt 0.000000 0.000000
vt 0.000000 0.000000
vt 0.000000 0.000000
vt 0.000000 0.000000
vt 0.000000 0.000000
vt 0.000000 0.000000
vt 0.000000 0.000000
vt 0.000000 0.000000
vt 0.000000 0.000000
vt 0.000000 0.000000
vt 0.000000 0.000000
vt 0.000000 0.000000
vt 0.000000 0.000000
vt 0.000000 0.000000
vt 0.000000 0.000000
vt 0.000000 0.000000
vt 0.000000 0.000000
vt 0.000000 0.000000
vt 0.000000 0.000000
vt 0.000000 0.000000
vt 0.000000 0.000000
vt 0.000000 0.000000
vt 0.000000 0.000000
vt 0.000000 0.000000
vt 0.000000 0.000000
vt 0.000000 0.000000
vt 0.000000 0.000000
vt 0.000000 0.000000
vt 0.000000 0.000000
vt 0.000000 0.000000
vt 0.000000 0.000000
vt 0.000000 0.000000
vt 0.000000 0.000000
vt 0.000000 0.000000
vt 0.000000 0.000000
vt 0.000000 0.000000
vt 0.000000 0.000000
vt 0.000000 0.000000
vt 0.000000 0.000000
vt 0.000000 0.000000
vt 0.000000 0.000000
vt 0.000000 0.000000
vt 0.000000 0.000000
vt 0.000000 0.000000
vt 1.000000 -0.000000
vt 1.000000 1.000000
vt 0.000000 1.000000
vt 0.000000 1.000000
vn -0.7511 -0.5131 -0.4153
vn 0.0215 0.0351 0.9992
vn 0.8226 0.2063 -0.5300
vn -0.2147 0.9681 -0.1296
vn 0.8217 0.1226 -0.5566
vn 0.0797 -0.0431 0.9959
vn -0.9024 0.0978 -0.4197
vn 0.0043 -0.9925 -0.1219
vn -0.6774 -0.5576 -0.4798
vn 0.0355 -0.0937 0.9950
vn 0.7740 0.3912 -0.4979
vn -0.3540 0.9352 0.0000
vn -0.8092 -0.2092 -0.5490
vn 0.8212 0.2782 -0.4983
vn -0.0915 0.2027 0.9749
vn 0.3641 -0.8779 0.3109
vn 0.7511 -0.5131 -0.4153
vn -0.0215 0.0351 0.9992
vn -0.8226 0.2063 -0.5300
vn 0.2147 0.9681 -0.1296
vn -0.8217 0.1226 -0.5566
vn -0.0797 -0.0431 0.9959
vn 0.9024 0.0978 -0.4197
vn -0.0043 -0.9925 -0.1219
vn 0.4307 -0.7644 -0.4798
vn -0.0669 -0.0746 0.9950
vn -0.5808 0.6441 -0.4979
vn 0.6676 0.7445 -0.0000
vn 0.6032 -0.5785 -0.5490
vn -0.5799 0.6445 -0.4983
vn 0.1791 0.1320 0.9749
vn -0.7472 -0.5873 0.3109
vn 0.0201 0.9998 0.0000
vn -0.9762 -0.2171 0.0000
vn -0.8638 -0.0829 -0.4970
vn -0.0201 -0.9998 0.0000
vn -0.0034 -0.1097 0.9940
vn 0.9666 -0.2561 0.0000
vn -0.0048 -0.2366 0.9716
vn 0.8570 -0.1365 -0.4970
vn 0.0311 0.9995 0.0000
vn 0.0048 0.2366 0.9716
vn 0.9762 0.2171 0.0000
vn 0.0048 0.2366 -0.9716
vn -0.9666 0.2561 0.0000
vn -0.0048 -0.2366 -0.9716
usemtl Body
s off
f 1/1/1 4/2/1 2/3/1
f 2/3/2 4/2/2 3/4/2
f 3/4/3 4/2/3 1/1/3
f 1/1/4 2/3/4 3/4/4
f 5/5/5 8/6/5 6/7/5
f 6/7/6 8/6/6 7/8/6
f 7/8/7 8/6/7 5/5/7
f 5/5/8 6/7/8 7/8/8
f 9/9/9 12/10/9 10/11/9
f 10/11/10 12/10/10 11/12/10
f 11/12/11 12/10/11 9/9/11
f 9/9/12 10/11/12 11/12/12
f 13/13/13 16/14/13 14/15/13
f 14/15/14 16/14/14 15/16/14
f 15/16/15 16/14/15 13/13/15
f 13/13/16 14/15/16 15/16/16
f 17/17/17 18/18/17 20/19/17
f 18/18/18 19/20/18 20/19/18
f 19/20/19 17/17/19 20/19/19
f 17/17/20 19/20/20 18/18/20
f 21/21/21 22/22/21 24/23/21
f 22/22/22 23/24/22 24/23/22
f 23/24/23 21/21/23 24/23/23
f 21/21/24 23/24/24 22/22/24
f 25/25/25 26/26/25 28/27/25
f 26/26/26 27/28/26 28/27/26
f 27/28/27 25/25/27 28/27/27
f 25/25/28 27/28/28 26/26/28
f 29/29/29 30/30/29 32/31/29
f 30/30/30 31/32/30 32/31/30
f 31/32/31 29/29/31 32/31/31
f 29/29/32 31/32/32 30/30/32
f 50/33/33 43/34/33 41/35/33 51/36/33
f 46/37/34 44/38/34 42/39/34 48/40/34
f 35/41/35 40/42/35 37/43/35
f 49/44/36 33/45/36 36/46/36 52/47/36
f 37/43/37 40/42/37 39/48/37
f 47/49/38 36/46/38 33/45/38 45/50/38
f 53/51/39 52/47/39 36/46/39 47/49/39
f 39/48/40 40/42/40 35/41/40
f 35/41/41 37/43/41 39/48/41
f 51/36/42 53/51/42 47/49/42 38/52/42
f 38/52/43 47/49/43 45/50/43 34/53/43
f 50/33/44 54/54/44 46/37/44 43/34/44
f 43/34/45 46/37/45 48/40/45 41/35/45
f 34/53/44 45/50/44 54/54/44 50/33/44
f 41/35/42 48/40/42 53/51/42 51/36/42
f 48/40/39 42/39/39 52/47/39 53/51/39
f 44/38/36 49/44/36 52/47/36 42/39/36
f 34/53/33 50/33/33 51/36/33 38/52/33
usemtl Eye
f 54/55/46 49/56/46 44/57/46 46/37/46
f 45/50/46 33/58/46 49/56/46 54/55/46
