# Blender v2.79 (sub 0) OBJ File: 'bud.blend'
# www.blender.org
mtllib bud_11.mtl
o bud_mesh
v -2.368265 -9.095979 -1.810793
v -3.214104 -9.017170 -0.301374
v -1.522426 -8.651093 -0.366275
v -0.221754 -13.464236 -0.020765
v -2.516428 -8.062083 -1.766176
v -1.532813 -8.269577 -0.356391
v -3.259254 -8.297557 -0.219930
v -2.487239 0.112331 0.309266
v -2.693627 -14.485847 -1.000000
v -3.504671 -14.789504 0.500000
v -1.882581 -14.182192 0.500000
v 0.083838 -18.749540 -0.000000
v -3.869847 -14.189524 0.627046
v -2.882719 -14.286420 -0.792879
v -2.268994 -13.528365 0.638448
v -4.407867 -9.150211 -0.472617
v 2.368265 -9.095981 -1.810793
v 3.214104 -9.017172 -0.301374
v 1.522426 -8.651093 -0.366275
v 0.221754 -13.464236 -0.020765
v 2.516428 -8.062084 -1.766176
v 1.532813 -8.269578 -0.356390
v 3.259254 -8.297558 -0.219930
v 2.487240 0.112330 0.309265
v 2.738176 -14.512002 -1.000000
v 3.546259 -14.823455 0.500000
v 1.930093 -14.200551 0.500000
v -0.080220 -18.748749 -0.000000
v 3.917196 -14.227019 0.627046
v 2.929180 -14.314405 -0.792879
v 2.322782 -13.550476 0.638448
v 4.503720 -9.193123 -0.472617
v 2.000000 -24.091627 -2.000000
v 2.000000 -20.091627 -2.000000
v 0.000000 -14.696208 -1.000000
v 2.000000 -24.091627 2.000000
v -0.866025 -14.696208 0.500000
v 2.000000 -20.091627 2.000000
v 0.866025 -14.696208 0.500000
v 0.000000 -19.222704 0.000000
v -2.000000 -20.091627 2.000000
v -2.000000 -24.091627 2.000000
v -2.000000 -20.091627 -2.000000
v -2.000000 -24.091627 -2.000000
v 2.487092 -22.091627 -2.487092
v -2.487092 -22.091627 -2.487092
v 2.487092 -22.091627 2.487092
v -2.487092 -22.091627 2.487092
v 0.000000 -24.091627 -2.000000
v 0.000000 -20.091627 -2.000000
v 0.000000 -20.091627 2.000000
v 0.000000 -24.091627 2.000000
v 0.000000 -22.091627 2.487092
v 0.000000 -22.091627 -2.487092
vt 0.000000 0.000000
vt 0.000000 0.000000
vt 0.000000 0.000000
vt 0.000000 0.000000
vt 0.000000 0.000000
vt 0.000000 0.000000
vt 0.000000 0.000000
vt 0.000000 0.000000
vt 0.000000 0.000000
vt 0.000000 0.000000
vt 0.000000 0.000000
vt 0.000000 0.000000
vt 0.000000 0.000000
vt 0.000000 0.000000
vt 0.000000 0.000000
vt 0.000000 0.000000
vt 0.000000 0.000000
vt 0.000000 0.000000
vt 0.000000 0.000000
vt 0.000000 0.000000
vt 0.000000 0.000000
vt 0.000000 0.000000
vt 0.000000 0.000000
vt 0.000000 0.000000
vt 0.000000 0.000000
vt 0.000000 0.000000
vt 0.000000 0.000000
vt 0.000000 0.000000
vt 0.000000 0.000000
vt 0.000000 0.000000
vt 0.000000 0.000000
vt 0.000000 0.000000
vt 0.000000 0.000000
vt 0.000000 0.000000
vt 0.000000 0.000000
vt 0.000000 0.000000
vt 0.000000 0.000000
vt 0.000000 0.000000
vt 0.000000 0.000000
vt 0.000000 0.000000
vt 0.000000 0.000000
vt 0.000000 0.000000
vt 0.000000 0.000000
vt 0.000000 0.000000
vt 0.000000 0.000000
vt 0.000000 0.000000
vt 0.000000 0.000000
vt 0.000000 0.000000
vt 0.000000 0.000000
vt 0.000000 0.000000
vt 0.000000 0.000000
vt 0.000000 0.000000
vt 0.000000 0.000000
vt 0.000000 0.000000
vt 1.000000 -0.000000
vt 1.000000 1.000000
vt 0.000000 1.000000
vt 0.000000 1.000000
vn -0.7511 -0.5302 -0.3932
vn 0.0215 0.0774 0.9968
vn 0.8226 0.1836 -0.5382
vn -0.2147 0.9617 -0.1705
vn 0.8217 0.1375 -0.5531
vn 0.0797 -0.0699 0.9944
vn -0.9024 0.1091 -0.4169
vn 0.0043 -0.9889 -0.1485
vn -0.6795 -0.5551 -0.4798
vn 0.0351 -0.0938 0.9950
vn 0.7754 0.3884 -0.4979
vn -0.3506 0.9365 0.0000
vn -0.8100 -0.2063 -0.5490
vn 0.8222 0.2752 -0.4983
vn -0.0908 0.2031 0.9749
vn 0.3609 -0.8792 0.3109
vn 0.7511 -0.5302 -0.3932
vn -0.0215 0.0774 0.9968
vn -0.8226 0.1836 -0.5382
vn 0.2147 0.9617 -0.1705
vn -0.8217 0.1375 -0.5531
vn -0.0797 -0.0699 0.9944
vn 0.9024 0.1091 -0.4169
vn -0.0043 -0.9889 -0.1485
vn 0.6741 -0.5617 -0.4798
vn -0.0360 -0.0935 0.9950
vn -0.7717 0.3958 -0.4979
vn 0.3596 0.9331 0.0000
vn 0.8079 -0.2141 -0.5490
vn -0.8195 0.2831 -0.4983
vn 0.0928 0.2022 0.9749
vn -0.3694 -0.8757 0.3109
vn 0.0000 1.0000 0.0000
vn -0.9716 -0.2366 0.0000
vn -0.8608 -0.1098 -0.4970
vn 0.0000 -1.0000 0.0000
vn 0.0000 -0.1098 0.9940
vn 0.9716 -0.2366 0.0000
vn 0.0000 -0.2366 0.9716
vn 0.8608 -0.1098 -0.4970
vn 0.0000 0.2366 0.9716
vn 0.9716 0.2366 0.0000
vn 0.0000 0.2366 -0.9716
vn -0.9716 0.2366 0.0000
vn 0.0000 -0.2366 -0.9716
usemtl Body
s off
f 1/1/1 4/2/1 2/3/1
f 2/3/2 4/2/2 3/4/2
f 3/4/3 4/2/3 1/1/3
f 1/1/4 2/3/4 3/4/4
f 5/5/5 8/6/5 6/7/5
f 6/7/6 8/6/6 7/8/6
f 7/8/7 8/6/7 5/5/7
f 5/5/8 6/7/8 7/8/8
f 9/9/9 12/10/9 10/11/9
f 10/11/10 12/10/10 11/12/10
f 11/12/11 12/10/11 9/9/11
f 9/9/12 10/11/12 11/12/12
f 13/13/13 16/14/13 14/15/13
f 14/15/14 16/14/14 15/16/14
f 15/16/15 16/14/15 13/13/15
f 13/13/16 14/15/16 15/16/16
f 17/17/17 18/18/17 20/19/17
f 18/18/18 19/20/18 20/19/18
f 19/20/19 17/17/19 20/19/19
f 17/17/20 19/20/20 18/18/20
f 21/21/21 22/22/21 24/23/21
f 22/22/22 23/24/22 24/23/22
f 23/24/23 21/21/23 24/23/23
f 21/21/24 23/24/24 22/22/24
f 25/25/25 26/26/25 28/27/25
f 26/26/26 27/28/26 28/27/26
f 27/28/27 25/25/27 28/27/27
f 25/25/28 27/28/28 26/26/28
f 29/29/29 30/30/29 32/31/29
f 30/30/30 31/32/30 32/31/30
f 31/32/31 29/29/31 32/31/31
f 29/29/32 31/32/32 30/30/32
f 50/33/33 43/34/33 41/35/33 51/36/33
f 46/37/34 44/38/34 42/39/34 48/40/34
f 35/41/35 40/42/35 37/43/35
f 49/44/36 33/45/36 36/46/36 52/47/36
f 37/43/37 40/42/37 39/48/37
f 47/49/38 36/46/38 33/45/38 45/50/38
f 53/51/39 52/47/39 36/46/39 47/49/39
f 39/48/40 40/42/40 35/41/40
f 35/41/33 37/43/33 39/48/33
f 51/36/41 53/51/41 47/49/41 38/52/41
f 38/52/42 47/49/42 45/50/42 34/53/42
f 50/33/43 54/54/43 46/37/43 43/34/43
f 43/34/44 46/37/44 48/40/44 41/35/44
f 34/53/43 45/50/43 54/54/43 50/33/43
f 41/35/41 48/40/41 53/51/41 51/36/41
f 48/40/39 42/39/39 52/47/39 53/51/39
f 44/38/36 49/44/36 52/47/36 42/39/36
f 34/53/33 50/33/33 51/36/33 38/52/33
usemtl Eye
f 54/55/45 49/56/45 44/57/45 46/37/45
f 45/50/45 33/58/45 49/56/45 54/55/45
