# Blender v2.79 (sub 0) OBJ File: 'bud.blend'
# www.blender.org
mtllib bud_01.mtl
o bud_mesh
v -2.368265 -9.072921 -1.622618
v -3.214104 -9.049925 -0.111318
v -1.522426 -8.681700 -0.162652
v -0.221754 -13.504321 0.004824
v -2.516428 -8.097964 -1.593132
v -1.532813 -8.272352 -0.178870
v -3.259253 -8.297125 -0.041791
v -2.487238 0.122856 0.290116
v -2.844764 -14.499702 -0.978680
v -3.658566 -14.795891 0.521320
v -2.030963 -14.203514 0.521320
v -0.106606 -18.788744 0.021320
v -4.018212 -14.192578 0.648366
v -3.032016 -14.298545 -0.771559
v -2.411349 -13.546163 0.659768
v -4.509892 -9.148535 -0.451297
v 2.368265 -9.072922 -1.622618
v 3.214104 -9.049926 -0.111318
v 1.522426 -8.681701 -0.162652
v 0.221754 -13.504321 0.004824
v 2.516428 -8.097964 -1.593132
v 1.532813 -8.272353 -0.178870
v 3.259254 -8.297126 -0.041791
v 2.487239 0.122855 0.290116
v 3.866476 -15.657644 -0.978680
v 4.533973 -16.209412 0.521320
v 3.198978 -15.105877 0.521320
v -0.150627 -18.781147 0.021320
v 5.056298 -15.911608 0.648366
v 4.123978 -15.573093 -0.771559
v 3.897408 -14.624425 0.659768
v 7.716022 -11.597677 -0.451297
v 1.428785 -24.265795 -1.978680
v 1.728146 -20.277012 -1.978680
v -0.039062 -14.737331 -0.978680
v 1.428785 -24.265795 2.021320
v -0.904558 -14.707055 0.521320
v 1.728146 -20.277012 2.021320
v 0.826434 -14.767610 0.521320
v -0.197312 -19.261061 0.021320
v -2.260636 -19.977652 2.021320
v -2.559997 -23.966434 2.021320
v -2.260636 -19.977652 -1.978680
v -2.559997 -23.966434 -1.978680
v 2.064191 -22.307859 -2.465772
v -2.896042 -21.935589 -2.465772
v 2.064191 -22.307859 2.508412
v -2.896042 -21.935589 2.508412
v -0.565606 -24.116116 -1.978680
v -0.266245 -20.127333 -1.978680
v -0.266245 -20.127333 2.021320
v -0.565606 -24.116116 2.021320
v -0.415926 -22.121723 2.508412
v -0.415926 -22.121723 -2.465772
vt 0.000000 0.000000
vt 0.000000 0.000000
vt 0.000000 0.000000
vt 0.000000 0.000000
vt 0.000000 0.000000
vt 0.000000 0.000000
vt 0.000000 0.000000
vt 0.000000 0.000000
vt 0.000000 0.000000
vt 0.000000 0.000000
vt 0.000000 0.000000
vt 0.000000 0.000000
vt 0.000000 0.000000
vt 0.000000 0.000000
vt 0.000000 0.000000
vt 0.000000 0.000000
vt 0.000000 0.000000
vt 0.000000 0.000000
vt 0.000000 0.000000
vt 0.000000 0.000000
vt 0.000000 0.000000
vt 0.000000 0.000000
vt 0.000000 0.000000
vt 0.000000 0.000000
vt 0.000000 0.000000
vt 0.000000 0.000000
vt 0.000000 0.000000
vt 0.000000 0.000000
vt 0.000000 0.000000
vt 0.000000 0.000000
vt 0.000000 0.000000
vt 0.000000 0.000000
vt 0.000000 0.000000
vt 0.000000 0.000000
vt 0.000000 0.000000
vt 0.000000 0.000000
vt 0.000000 0.000000
vt 0.000000 0.000000
vt 0.000000 0.000000
vt 0.000000 0.000000
vt 0.000000 0.000000
vt 0.000000 0.000000
vt 0.000000 0.000000
vt 0.000000 0.000000
vt 0.000000 0.000000
vt 0.000000 0.000000
vt 0.000000 0.000000
vt 0.000000 0.000000
vt 0.000000 0.000000
vt 0.000000 0.000000
vt 0.000000 0.000000
vt 0.000000 0.000000
vt 0.000000 0.000000
vt 0.000000 0.000000
vt 1.000000 -0.000000
vt 1.000000 1.000000
vt 0.000000 1.000000
vt 0.000000 1.000000
vn -0.7511 -0.5154 -0.4126
vn 0.0215 0.0405 0.9989
vn 0.8226 0.2034 -0.5311
vn -0.2147 0.9673 -0.1349
vn 0.8217 0.1245 -0.5561
vn 0.0797 -0.0466 0.9957
vn -0.9024 0.0993 -0.4193
vn 0.0043 -0.9921 -0.1253
vn -0.6845 -0.5489 -0.4798
vn 0.0343 -0.0941 0.9950
vn 0.7790 0.3812 -0.4979
vn -0.3420 0.9397 -0.0000
vn -0.8118 -0.1988 -0.5490
vn 0.8247 0.2676 -0.4983
vn -0.0889 0.2039 0.9749
vn 0.3528 -0.8825 0.3109
vn 0.7511 -0.5154 -0.4126
vn -0.0215 0.0405 0.9989
vn -0.8226 0.2034 -0.5311
vn 0.2147 0.9673 -0.1349
vn -0.8217 0.1245 -0.5561
vn -0.0797 -0.0466 0.9957
vn 0.9024 0.0993 -0.4193
vn -0.0043 -0.9921 -0.1253
vn 0.4610 -0.7465 -0.4798
vn -0.0638 -0.0772 0.9950
vn -0.6062 0.6202 -0.4979
vn 0.6371 0.7708 0.0000
vn 0.6417 -0.5356 -0.5490
vn -0.6230 0.6030 -0.4983
vn 0.1695 0.1440 0.9749
vn -0.7050 -0.6375 0.3109
vn 0.0748 0.9972 0.0000
vn -0.9866 -0.1633 0.0000
vn -0.8641 -0.0796 -0.4970
vn -0.0748 -0.9972 0.0000
vn -0.0038 -0.1097 0.9940
vn 0.9512 -0.3087 0.0000
vn -0.0177 -0.2360 0.9716
vn 0.8564 -0.1398 -0.4970
vn 0.0350 0.9994 0.0000
vn 0.0177 0.2360 0.9716
vn 0.9866 0.1633 0.0000
vn 0.0177 0.2360 -0.9716
vn -0.9512 0.3087 0.0000
vn -0.0177 -0.2360 -0.9716
usemtl Body
s off
f 1/1/1 4/2/1 2/3/1
f 2/3/2 4/2/2 3/4/2
f 3/4/3 4/2/3 1/1/3
f 1/1/4 2/3/4 3/4/4
f 5/5/5 8/6/5 6/7/5
f 6/7/6 8/6/6 7/8/6
f 7/8/7 8/6/7 5/5/7
f 5/5/8 6/7/8 7/8/8
f 9/9/9 12/10/9 10/11/9
f 10/11/10 12/10/10 11/12/10
f 11/12/11 12/10/11 9/9/11
f 9/9/12 10/11/12 11/12/12
f 13/13/13 16/14/13 14/15/13
f 14/15/14 16/14/14 15/16/14
f 15/16/15 16/14/15 13/13/15
f 13/13/16 14/15/16 15/16/16
f 17/17/17 18/18/17 20/19/17
f 18/18/18 19/20/18 20/19/18
f 19/20/19 17/17/19 20/19/19
f 17/17/20 19/20/20 18/18/20
f 21/21/21 22/22/21 24/23/21
f 22/22/22 23/24/22 24/23/22
f 23/24/23 21/21/23 24/23/23
f 21/21/24 23/24/24 22/22/24
f 25/25/25 26/26/25 28/27/25
f 26/26/26 27/28/26 28/27/26
f 27/28/27 25/25/27 28/27/27
f 25/25/28 27/28/28 26/26/28
f 29/29/29 30/30/29 32/31/29
f 30/30/30 31/32/30 32/31/30
f 31/32/31 29/29/31 32/31/31
f 29/29/32 31/32/32 30/30/32
f 50/33/33 43/34/33 41/35/33 51/36/33
f 46/37/34 44/38/34 42/39/34 48/40/34
f 35/41/35 40/42/35 37/43/35
f 49/44/36 33/45/36 36/46/36 52/47/36
f 37/43/37 40/42/37 39/48/37
f 47/49/38 36/46/38 33/45/38 45/50/38
f 53/51/39 52/47/39 36/46/39 47/49/39
f 39/48/40 40/42/40 35/41/40
f 35/41/41 37/43/41 39/48/41
f 51/36/42 53/51/42 47/49/42 38/52/42
f 38/52/43 47/49/43 45/50/43 34/53/43
f 50/33/44 54/54/44 46/37/44 43/34/44
f 43/34/45 46/37/45 48/40/45 41/35/45
f 34/53/44 45/50/44 54/54/44 50/33/44
f 41/35/42 48/40/42 53/51/42 51/36/42
f 48/40/39 42/39/39 52/47/39 53/51/39
f 44/38/36 49/44/36 52/47/36 42/39/36
f 34/53/33 50/33/33 51/36/33 38/52/33
usemtl Eye
f 54/55/46 49/56/46 44/57/46 46/37/46
f 45/50/46 33/58/46 49/56/46 54/55/46
