# Blender v2.79 (sub 0) OBJ File: 'bud.blend'
# www.blender.org
mtllib bud_03.mtl
o bud_mesh
v -2.368265 -9.042248 -0.898815
v -3.214105 -9.228141 0.601185
v -1.522426 -8.856354 0.601185
v -0.221754 -13.655910 0.101185
v -2.516428 -8.293670 -0.933567
v -1.532813 -8.342845 0.490558
v -3.259254 -8.355451 0.629286
v -2.487239 0.061048 0.218465
v -3.659895 -14.436428 -0.898815
v -4.484149 -14.702148 0.601185
v -2.835641 -14.170709 0.601185
v -1.083131 -18.824329 0.101185
v -4.821110 -14.085879 0.728231
v -3.839536 -14.228448 -0.691694
v -3.191319 -13.499666 0.739634
v -5.124871 -9.027040 -0.371432
v 2.368265 -9.042248 -0.898815
v 3.214104 -9.228141 0.601185
v 1.522426 -8.856355 0.601185
v 0.221754 -13.655910 0.101185
v 2.516428 -8.293670 -0.933567
v 1.532813 -8.342845 0.490558
v 3.259254 -8.355451 0.629286
v 2.487239 0.061048 0.218465
v 3.234614 -22.236597 -0.898815
v 2.869689 -23.021982 0.601185
v 3.599539 -21.451214 0.601185
v -0.803658 -19.140514 0.101185
v 2.266278 -23.083401 0.728232
v 3.063647 -22.493475 -0.691694
v 3.979495 -22.828930 0.739634
v 4.391664 -27.684147 -0.371431
v -1.302536 -24.548376 -1.898815
v 0.273163 -20.871801 -1.898815
v -0.238590 -14.868855 -0.898815
v -1.302536 -24.548376 2.101185
v -1.084640 -14.683925 0.601185
v 0.273163 -20.871801 2.101185
v 0.607460 -15.053787 0.601185
v -1.205180 -19.290947 0.101185
v -3.403408 -19.296104 2.101185
v -4.979107 -22.972677 2.101185
v -3.403408 -19.296104 -1.898815
v -4.979107 -22.972677 -1.898815
v -0.066979 -22.901966 -2.385907
v -4.638964 -20.942513 -2.385907
v -0.066979 -22.901966 2.588277
v -4.638964 -20.942513 2.588277
v -3.140821 -23.760527 -1.898815
v -1.565122 -20.083952 -1.898815
v -1.565122 -20.083952 2.101185
v -3.140821 -23.760527 2.101185
v -2.352972 -21.922237 2.588277
v -2.352972 -21.922237 -2.385907
vt 0.000000 0.000000
vt 0.000000 0.000000
vt 0.000000 0.000000
vt 0.000000 0.000000
vt 0.000000 0.000000
vt 0.000000 0.000000
vt 0.000000 0.000000
vt 0.000000 0.000000
vt 0.000000 0.000000
vt 0.000000 0.000000
vt 0.000000 0.000000
vt 0.000000 0.000000
vt 0.000000 0.000000
vt 0.000000 0.000000
vt 0.000000 0.000000
vt 0.000000 0.000000
vt 0.000000 0.000000
vt 0.000000 0.000000
vt 0.000000 0.000000
vt 0.000000 0.000000
vt 0.000000 0.000000
vt 0.000000 0.000000
vt 0.000000 0.000000
vt 0.000000 0.000000
vt 0.000000 0.000000
vt 0.000000 0.000000
vt 0.000000 0.000000
vt 0.000000 0.000000
vt 0.000000 0.000000
vt 0.000000 0.000000
vt 0.000000 0.000000
vt 0.000000 0.000000
vt 0.000000 0.000000
vt 0.000000 0.000000
vt 0.000000 0.000000
vt 0.000000 0.000000
vt 0.000000 0.000000
vt 0.000000 0.000000
vt 0.000000 0.000000
vt 0.000000 0.000000
vt 0.000000 0.000000
vt 0.000000 0.000000
vt 0.000000 0.000000
vt 0.000000 0.000000
vt 0.000000 0.000000
vt 0.000000 0.000000
vt 0.000000 0.000000
vt 0.000000 0.000000
vt 0.000000 0.000000
vt 0.000000 0.000000
vt 0.000000 0.000000
vt 0.000000 0.000000
vt 0.000000 0.000000
vt 0.000000 0.000000
vt 1.000000 -0.000000
vt 1.000000 1.000000
vt 0.000000 1.000000
vt 0.000000 1.000000
vn -0.7511 -0.4535 -0.4798
vn 0.0215 -0.0978 0.9950
vn 0.8226 0.2748 -0.4979
vn -0.2147 0.9767 0.0000
vn 0.8217 0.0750 -0.5649
vn 0.0797 0.0413 0.9960
vn -0.9024 0.0620 -0.4265
vn 0.0043 -0.9993 -0.0375
vn -0.7045 -0.5230 -0.4798
vn 0.0307 -0.0953 0.9950
vn 0.7926 0.3520 -0.4979
vn -0.3068 0.9518 0.0000
vn -0.8187 -0.1685 -0.5490
vn 0.8341 0.2368 -0.4983
vn -0.0813 0.2070 0.9749
vn 0.3198 -0.8950 0.3109
vn 0.7511 -0.4535 -0.4798
vn -0.0215 -0.0978 0.9950
vn -0.8226 0.2748 -0.4979
vn 0.2147 0.9767 0.0000
vn -0.8217 0.0750 -0.5649
vn -0.0797 0.0413 0.9960
vn 0.9024 0.0620 -0.4265
vn -0.0043 -0.9993 -0.0375
vn -0.6056 -0.6349 -0.4798
vn -0.0908 0.0422 0.9950
vn 0.4466 0.7434 -0.4979
vn 0.9069 -0.4214 0.0000
vn -0.8010 -0.2388 -0.5490
vn 0.8468 0.1859 -0.4983
vn 0.0263 -0.2209 0.9749
vn -0.1417 0.9398 0.3109
vn 0.3939 0.9191 0.0000
vn -0.9863 0.1652 0.0000
vn -0.8644 0.0766 -0.4970
vn -0.3939 -0.9191 0.0000
vn -0.0234 -0.1073 0.9940
vn 0.7998 -0.6002 0.0000
vn -0.0932 -0.2175 0.9716
vn 0.8175 -0.2911 -0.4970
vn 0.2135 0.9769 0.0000
vn 0.0932 0.2175 0.9716
vn 0.9863 -0.1652 0.0000
vn 0.0932 0.2175 -0.9716
vn -0.7998 0.6002 0.0000
vn -0.0932 -0.2175 -0.9716
usemtl Body
s off
f 1/1/1 4/2/1 2/3/1
f 2/3/2 4/2/2 3/4/2
f 3/4/3 4/2/3 1/1/3
f 1/1/4 2/3/4 3/4/4
f 5/5/5 8/6/5 6/7/5
f 6/7/6 8/6/6 7/8/6
f 7/8/7 8/6/7 5/5/7
f 5/5/8 6/7/8 7/8/8
f 9/9/9 12/10/9 10/11/9
f 10/11/10 12/10/10 11/12/10
f 11/12/11 12/10/11 9/9/11
f 9/9/12 10/11/12 11/12/12
f 13/13/13 16/14/13 14/15/13
f 14/15/14 16/14/14 15/16/14
f 15/16/15 16/14/15 13/13/15
f 13/13/16 14/15/16 15/16/16
f 17/17/17 18/18/17 20/19/17
f 18/18/18 19/20/18 20/19/18
f 19/20/19 17/17/19 20/19/19
f 17/17/20 19/20/20 18/18/20
f 21/21/21 22/22/21 24/23/21
f 22/22/22 23/24/22 24/23/22
f 23/24/23 21/21/23 24/23/23
f 21/21/24 23/24/24 22/22/24
f 25/25/25 26/26/25 28/27/25
f 26/26/26 27/28/26 28/27/26
f 27/28/27 25/25/27 28/27/27
f 25/25/28 27/28/28 26/26/28
f 29/29/29 30/30/29 32/31/29
f 30/30/30 31/32/30 32/31/30
f 31/32/31 29/29/31 32/31/31
f 29/29/32 31/32/32 30/30/32
f 50/33/33 43/34/33 41/35/33 51/36/33
f 46/37/34 44/38/34 42/39/34 48/40/34
f 35/41/35 40/42/35 37/43/35
f 49/44/36 33/45/36 36/46/36 52/47/36
f 37/43/37 40/42/37 39/48/37
f 47/49/38 36/46/38 33/45/38 45/50/38
f 53/51/39 52/47/39 36/46/39 47/49/39
f 39/48/40 40/42/40 35/41/40
f 35/41/41 37/43/41 39/48/41
f 51/36/42 53/51/42 47/49/42 38/52/42
f 38/52/43 47/49/43 45/50/43 34/53/43
f 50/33/44 54/54/44 46/37/44 43/34/44
f 43/34/45 46/37/45 48/40/45 41/35/45
f 34/53/44 45/50/44 54/54/44 50/33/44
f 41/35/42 48/40/42 53/51/42 51/36/42
f 48/40/39 42/39/39 52/47/39 53/51/39
f 44/38/36 49/44/36 52/47/36 42/39/36
f 34/53/33 50/33/33 51/36/33 38/52/33
usemtl Eye
f 54/55/46 49/56/46 44/57/46 46/37/46
f 45/50/46 33/58/46 49/56/46 54/55/46
